# xmcd
#
# Track frame offsets: 
#        150
#        11830
#        22590
#        36497
#        46362
#        58090
#        67600
#        82127
#        94732
#        102822
#        111760
#        123995
#        135590
#        149967
#        160310
#        170052
#        176822
#        186795
#        196965
#
# Disc length: 2745 seconds
#
# Revision: 0
# Processed by: cddbd v1.4PL0 Copyright (c) Steve Scherf et al.
# Submitted via: ExactAudioCopy v0.90b2
#
DISCID=0e0ab713
DTITLE=Various Artist - Newport Folk Festival - Best of Bluegrass 195
DTITLE=9-66 - Disk 1
DYEAR=1900
DGENRE=Bluegrass
TTITLE0=Hylo Brown and the Timberliners with Earl Scruggs/John Henry
TTITLE1=Hylo Brown and the Timberliners with Earl Scruggs/Gathering Flow
TTITLE1=ers from the Hillside
TTITLE2=Hylo Brown and the Timberliners with Earl Scruggs/Love and Wealth
TTITLE3=Hylo Brown and the Timberliners with Earl Scruggs/Orange Blossom
TTITLE3=Special
TTITLE4=Hylo Brown and the Timberliners with Earl Scruggs/The Prisoner S
TTITLE4=ong
TTITLE5=The Stanley Brothers and the Clinch Mountain Boys/How Mountain G
TTITLE5=irls Can Love
TTITLE6=The Stanley Brothers and the Clinch Mountain Boys/Man of Constan
TTITLE6=t Sorrow
TTITLE7=The Stanley Brothers and the Clinch Mountain Boys/Gathering Flow
TTITLE7=ers for the Master's Bouquet
TTITLE8=The Stanley Brothers and the Clinch Mountain Boys/Choo Choo Comi
TTITLE8=ng
TTITLE9=Lester Flatt and Earl Scruggs and the Foggy Mountain Boys/Salty Do
TTITLE9=g Blues
TTITLE10=Lester Flatt and Earl Scruggs and the Foggy Mountain Boys/Before 
TTITLE10=I Met You
TTITLE11=Lester Flatt and Earl Scruggs and the Foggy Mountain Boys/Cabin o
TTITLE11=n the Hill
TTITLE12=Lester Flatt and Earl Scruggs and the Foggy Mountain Boys/Jimmy B
TTITLE12=rown the Newsboy
TTITLE13=Jim and Jesse and the Virginia Boys/Border Ride
TTITLE14=Jim and Jesse and the Virginia Boys/Gosh I Miss You All the Time
TTITLE15=Jim and Jesse and the Virginia Boys/Dill Pickle Rag
TTITLE16=Jim and Jesse and the Virginia Boys/She Left Me Standing on the M
TTITLE16=ountain
TTITLE17=Jim and Jesse and the Virginia Boys/Pardon Me
TTITLE18=Jim and Jesse and the Virginia Boys/Sweet Little Miss Blue Eyes
EXTD=
EXTT0=
EXTT1=
EXTT2=
EXTT3=
EXTT4=
EXTT5=
EXTT6=
EXTT7=
EXTT8=
EXTT9=
EXTT10=
EXTT11=
EXTT12=
EXTT13=
EXTT14=
EXTT15=
EXTT16=
EXTT17=
EXTT18=
PLAYORDER=
